# xmcd
#
# Track frame offsets:
#	150
#	17554
#	34744
#	51511
#	66562
#	84577
#	104352
#	121253
#	139202
#	156528
#	170513
#	187284
#	206492
#	222064
#	252181
#	280404
#	318011
#
# Disc length: 4679 seconds
#
# Revision: 1702960104
# Processed by: cddbd v1.5.2PL0 Copyright (c) Steve Scherf et al.
# Submitted via: EZCDAudioConverter 8.0.2.1
#
DISCID=03124511
DTITLE=QT. Modern Talking - 25 Years Of Disco-Pop [CD1]
DYEAR=2010
DGENRE=Electronic
TTITLE0=Modern Talking - You're My Heart, You're My Soul
TTITLE1=Modern Talking - Cheri Cheri Lady
TTITLE2=Modern Talking - Brother Louie
TTITLE3=Modern Talking - Geronimo's Cadillac
TTITLE4=Modern Talking - In 100 Years
TTITLE5=Modern Talking - Jet Airliner
TTITLE6=Modern Talking - You Can Win If You Want
TTITLE7=Modern Talking - Just We Two (Mona Lisa)
TTITLE8=Modern Talking - Atlantis is Calling (S.O.S. For Love)
TTITLE9=Modern Talking - Sweet Little Sheila
TTITLE10=Modern Talking - One In a Million
TTITLE11=Modern Talking - Give Me Peace On Earth
TTITLE12=Modern Talking - Keep Love Alive [Long Vocal Mix]
TTITLE13=Modern Talking - In 100 Years [Long Version Future Mix]
TTITLE14=Modern Talking - Brother Louie [Metro Clubmix]
TTITLE15=Ryan Simmons - Lucky Guy [Special-Dj-Mix]
TTITLE16=Modern Talking - You're My Heart, You're My Soul [Paul Masterson's Ex
TTITLE16=tended Remix]
EXTD=
EXTT0=
EXTT1=
EXTT2=
EXTT3=
EXTT4=
EXTT5=
EXTT6=
EXTT7=
EXTT8=
EXTT9=
EXTT10=
EXTT11=
EXTT12=
EXTT13=
EXTT14=
EXTT15=
EXTT16=
PLAYORDER=
